<svg width="108" height="94" viewBox="0 0 108 94" fill="none" xmlns="http://www.w3.org/2000/svg">
<path fill-rule="evenodd" clip-rule="evenodd" d="M91.9482 91.715C92.2497 92.0115 92.2569 92.4995 91.9595 92.8003C91.6621 93.101 91.1795 93.0938 90.8864 92.7888L89.0194 90.8469C88.7487 90.5653 88.7554 90.1154 89.03 89.8377C89.3046 89.56 89.7494 89.5533 90.0279 89.8271L91.9482 91.715ZM5.27003 75.5749C4.88384 75.7435 4.43534 75.5641 4.27422 75.1712C4.1131 74.7783 4.30413 74.3298 4.69491 74.1724L7.18382 73.1705C7.54429 73.0254 7.95252 73.2039 8.10115 73.5663C8.24978 73.9287 8.08593 74.3462 7.72969 74.5017L5.27003 75.5749ZM103.203 74.1724C103.594 74.3298 103.785 74.7783 103.624 75.1712C103.463 75.5641 103.014 75.7435 102.628 75.575L100.168 74.5017C99.8122 74.3462 99.6483 73.9287 99.7969 73.5663C99.9456 73.2039 100.354 73.0254 100.714 73.1705L103.203 74.1724ZM0.963756 55.1233C0.541667 55.1293 0.194156 54.788 0.194156 54.3612C0.194156 53.9343 0.541652 53.5931 0.963733 53.599L3.63555 53.6367C4.02573 53.6422 4.33712 53.9665 4.33712 54.3612C4.33712 54.7558 4.02573 55.0801 3.63555 55.0856L0.963756 55.1233ZM107.704 54.3612C107.704 54.7881 107.356 55.1293 106.934 55.1233L104.263 55.0856C103.872 55.0801 103.561 54.7558 103.561 54.3612C103.561 53.9665 103.872 53.6422 104.263 53.6367L106.934 53.599C107.356 53.5931 107.704 53.9343 107.704 54.3612ZM4.69491 34.5499C4.30414 34.3926 4.1131 33.944 4.27423 33.5511C4.43535 33.1582 4.88384 32.9789 5.27003 33.1474L7.72967 34.2207C8.08592 34.3761 8.24978 34.7936 8.10116 35.156C7.95253 35.5185 7.54429 35.6969 7.18382 35.5518L4.69491 34.5499ZM102.628 33.1474C103.014 32.9789 103.463 33.1582 103.624 33.5511C103.785 33.944 103.594 34.3926 103.203 34.5499L100.714 35.5518C100.354 35.6969 99.9456 35.5185 99.7969 35.156C99.6483 34.7936 99.8122 34.3761 100.168 34.2207L102.628 33.1474ZM90.8864 15.9335C91.1795 15.6286 91.6621 15.6213 91.9595 15.9221C92.2569 16.2228 92.2497 16.7108 91.9482 17.0073L90.0279 18.8953C89.7494 19.1691 89.3046 19.1623 89.03 18.8846C88.7554 18.6069 88.7487 18.157 89.0194 17.8754L90.8864 15.9335ZM15.9499 17.0073C15.6484 16.7108 15.6412 16.2228 15.9386 15.9221C16.236 15.6213 16.7186 15.6286 17.0117 15.9335L18.8786 17.8754C19.1494 18.157 19.1427 18.6069 18.8681 18.8846C18.5935 19.1623 18.1486 19.169 17.8702 18.8953L15.9499 17.0073ZM32.9718 5.13317C32.8052 4.74263 32.9825 4.28909 33.371 4.12615C33.7596 3.96321 34.2031 4.15638 34.3587 4.55158L35.3495 7.06857C35.493 7.43311 35.3165 7.84593 34.9581 7.99623C34.5997 8.14653 34.1869 7.98084 34.0331 7.62058L32.9718 5.13317ZM73.5394 4.55157C73.695 4.15638 74.1385 3.96322 74.5271 4.12616C74.9156 4.28909 75.0929 4.74264 74.9263 5.13318L73.865 7.62057C73.7112 7.98083 73.2984 8.14653 72.94 7.99624C72.5816 7.84593 72.4051 7.43309 72.5486 7.06855L73.5394 4.55157ZM53.9491 5.63358e-05C54.3712 5.63727e-05 54.7086 0.351482 54.7027 0.778331L54.6654 3.48027C54.66 3.87485 54.3393 4.18975 53.9491 4.18975C53.5588 4.18975 53.2381 3.87484 53.2327 3.48027L53.1954 0.778338C53.1895 0.351489 53.5269 5.62989e-05 53.9491 5.63358e-05Z" fill="#0063A8"/>
</svg>
